<svg width="40" height="40" viewBox="0 0 40 40" fill="none" xmlns="http://www.w3.org/2000/svg">
<rect width="40" height="40" rx="20" fill="#A14C36" fill-opacity="0.2"/>
<g clip-path="url(#clip0_408_2814)">
<path d="M30.7023 11.8072C28.252 8.58812 24.3805 6.51239 20.025 6.51239C15.567 6.51239 11.6178 8.68519 9.17962 12.0312C7.56153 14.2454 6.60767 16.9782 6.60767 19.9322C6.60767 27.3416 12.6155 33.3495 20.025 33.3495C27.4344 33.3495 33.4422 27.3416 33.4422 19.9322C33.4447 16.8783 32.4227 14.0631 30.7023 11.8072ZM20.025 15.9244C22.237 15.9244 24.0327 17.7177 24.0327 19.9322C24.0327 22.1417 22.2394 23.9374 20.025 23.9374C17.813 23.9374 16.0172 22.1442 16.0172 19.9322C16.0197 17.7177 17.8133 15.9244 20.025 15.9244Z" fill="#FEB467"/>
<path d="M30.7023 11.8072C28.252 8.58812 24.3805 6.51239 20.0249 6.51239C15.567 6.51239 11.6178 8.68519 9.1796 12.0312C8.76365 13.2162 8.53467 14.4911 8.53467 15.8199C8.53467 22.1442 13.6593 27.2663 19.9811 27.2663C26.3028 27.2663 31.4275 22.1442 31.4275 15.8199C31.4275 14.4084 31.172 13.0557 30.7023 11.8072ZM20.0249 23.9349C17.8129 23.9349 16.0172 22.1417 16.0172 19.9297C16.0172 17.7177 17.8104 15.9219 20.0249 15.9219C22.2369 15.9219 24.0327 17.7152 24.0327 19.9297C24.0327 22.1417 22.2394 23.9349 20.0249 23.9349Z" fill="#FED9B4"/>
<path d="M30.7023 11.8072C28.2519 8.58812 24.3805 6.51239 20.0249 6.51239C15.567 6.51239 11.6178 8.68519 9.17959 12.0312C7.62715 14.1579 6.68542 16.7591 6.6123 19.5744C6.61479 19.6425 6.61728 19.7057 6.61946 19.7738C6.91626 16.3354 11.0407 16.1189 11.1016 19.7738C11.5322 22.6986 15.6081 22.7935 16.0265 20.1801V20.1776C16.0215 20.0949 16.0194 20.0146 16.0194 19.9294C16.0194 19.8077 16.0243 19.6886 16.0365 19.5691C16.0243 19.4475 16.0194 19.3283 16.0194 19.2042C16.0194 16.9922 17.8126 15.1964 20.0271 15.1964C22.2391 15.1964 24.0348 16.9897 24.0348 19.2042C24.0348 19.3283 24.0299 19.4475 24.0177 19.5691C24.0202 19.5837 24.0202 19.5959 24.0202 19.6105C24.5043 16.9215 28.2202 17.5593 28.461 19.771C28.7507 22.455 32.4006 23.2094 33.4347 19.771C33.4372 19.7004 33.4397 19.6347 33.4419 19.5641C33.3619 16.6568 32.3571 13.9728 30.7023 11.8072Z" fill="#A14C36"/>
<path d="M16.0611 20.499C16.0197 23.5212 11.5546 23.5675 11.102 20.499C11.041 16.8441 6.9166 17.0606 6.6198 20.499C6.61264 20.3117 6.60767 20.122 6.60767 19.9322C6.60767 19.813 6.61015 19.6939 6.61264 19.5744C6.61513 19.6426 6.61762 19.7057 6.6198 19.7738C6.9166 16.3354 11.041 16.1189 11.102 19.7738C11.5326 22.6986 15.6084 22.7935 16.0269 20.1801C16.0343 20.29 16.0465 20.3945 16.0611 20.499Z" fill="#814A3C"/>
<path d="M24.0326 19.2095C24.0326 19.3336 24.0276 19.4527 24.0154 19.5744C23.8353 17.5304 22.1174 15.9269 20.0248 15.9269C17.9323 15.9269 16.2168 17.5304 16.0342 19.5744C16.0221 19.4527 16.0171 19.3336 16.0171 19.2095C16.0171 16.9975 17.8103 15.2017 20.0248 15.2017C22.2393 15.2017 24.0326 16.995 24.0326 19.2095Z" fill="#703C32"/>
<path d="M33.4446 19.9322C33.4446 20.122 33.4397 20.3117 33.4325 20.499C32.3984 23.9374 28.7484 23.183 28.4588 20.499C28.213 18.2435 24.3561 17.6253 23.9912 20.499C24.018 20.3142 24.0326 20.1244 24.0326 19.9322C24.0326 19.8252 24.0276 19.7206 24.018 19.6133C24.5021 16.9244 28.218 17.5621 28.4588 19.7738C28.7484 22.4578 32.3984 23.2122 33.4325 19.7738C33.435 19.7032 33.4375 19.6376 33.4397 19.5669C33.4421 19.6889 33.4446 19.8105 33.4446 19.9322Z" fill="#814A3C"/>
<path d="M30.7023 11.8072C28.2519 8.58812 24.3805 6.51239 20.0249 6.51239C15.567 6.51239 11.6178 8.68519 9.17959 12.0312C7.62715 14.1579 6.68542 16.7591 6.6123 19.5744C6.61479 19.6425 6.61728 19.7057 6.61946 19.7738C6.91626 16.3354 11.0407 16.1189 11.1016 19.7738C11.5322 22.6986 15.6081 22.7935 16.0265 20.1801V20.1776C16.0461 20.0485 16.0583 19.9147 16.0607 19.7738C16.0511 19.7057 16.0436 19.64 16.0365 19.5719C16.0243 19.4503 16.0194 19.3311 16.0194 19.207C16.0194 16.995 17.8126 15.1992 20.0271 15.1992C22.2391 15.1992 24.0348 16.9925 24.0348 19.207C24.0348 19.3311 24.0299 19.4503 24.0177 19.5719C24.0106 19.64 24.0031 19.7057 23.9935 19.7738C24.0006 19.7178 24.0081 19.6643 24.0202 19.6133C24.5043 16.9243 28.2202 17.5621 28.461 19.7738C28.7507 22.4578 32.4006 23.2122 33.4347 19.7738C33.4372 19.7032 33.4397 19.6375 33.4419 19.5669C33.3619 16.6568 32.3571 13.9728 30.7023 11.8072Z" fill="#A14C36"/>
<path d="M15.2944 11.9994L15.0169 12.16C14.8489 12.2574 14.6324 12.1989 14.535 12.0309L13.5326 10.2958C13.4352 10.1278 13.4937 9.91126 13.6617 9.81388L13.9392 9.65335C14.1072 9.55597 14.3237 9.61446 14.4211 9.78246L15.4235 11.5175C15.5184 11.6855 15.4624 11.9021 15.2944 11.9994ZM13.8151 17.825L13.5376 17.9855C13.3696 18.0829 13.153 18.0244 13.0557 17.8564L12.0533 16.1214C11.9559 15.9534 12.0144 15.7368 12.1824 15.6394L12.4599 15.4789C12.6279 15.3815 12.8444 15.44 12.9418 15.608L13.9442 17.3431C14.0416 17.5133 13.9856 17.7276 13.8151 17.825ZM31.4905 17.983L31.213 18.1436C31.045 18.241 30.8285 18.1825 30.7311 18.0145L29.7287 16.2794C29.6313 16.1114 29.6898 15.8949 29.8578 15.7975L30.1353 15.637C30.3033 15.5396 30.5199 15.5981 30.6173 15.7661L31.6197 17.5011C31.7145 17.6716 31.6585 17.8857 31.4905 17.983ZM26.5097 12.4885L26.2321 12.649C26.0641 12.7464 25.8476 12.6879 25.7502 12.5199L24.7478 10.7849C24.6505 10.6169 24.7089 10.4003 24.8769 10.303L25.1545 10.1424C25.3225 10.045 25.539 10.1035 25.6364 10.2715L26.6388 12.0066C26.7358 12.1771 26.6777 12.3914 26.5097 12.4885ZM21.4945 14.1483L21.217 14.3088C21.049 14.4062 20.8325 14.3477 20.7351 14.1797L19.7327 12.4446C19.6353 12.2766 19.6938 12.0601 19.8618 11.9627L20.1393 11.8022C20.3073 11.7048 20.5239 11.7633 20.6213 11.9313L21.6237 13.6664C21.721 13.8344 21.6625 14.0509 21.4945 14.1483Z" fill="#FFC1E2"/>
<path d="M14.6425 8.43477C13.6108 8.01882 8.81939 12.3087 10.0872 16.8345C9.80032 16.6229 11.9489 10.7392 14.6425 8.43477Z" fill="#C9705F"/>
</g>
<defs>
<clipPath id="clip0_408_2814">
<rect width="28" height="28" fill="white" transform="translate(6 6)"/>
</clipPath>
</defs>
</svg>
