<svg width="40" height="40" viewBox="0 0 40 40" fill="none" xmlns="http://www.w3.org/2000/svg">
<rect width="40" height="40" rx="20" fill="white"/>
<path d="M30.4206 21.4812C30.3523 21.566 30.2839 21.6453 30.2128 21.7273C29.8601 22.1375 27.8449 25.1945 25.9718 26.9117C25.1679 27.65 24.2163 28.2133 23.1773 28.5496C22.8902 28.6426 22.6468 28.7027 22.5019 28.7082C20.7218 29.0555 17.282 27.0621 17.5417 23.4281C17.5937 22.709 17.7878 22.0035 18.1105 21.3582C18.455 20.6719 19.0593 19.8215 20.7218 18.9629C20.9925 18.8234 21.255 18.6648 21.4984 18.4789C21.6187 18.3887 21.7363 18.293 21.8484 18.1918C21.9495 18.1043 22.0507 18.0168 22.1546 17.932C24.9929 15.616 25.3921 10.5219 24.8507 10.2457C24.8179 10.2293 24.7304 10.2211 24.6648 10.2156C24.621 10.2129 18.7011 11.848 17.1753 12.6C13.4074 14.4566 7.73353 18.714 10.7113 26.7367C13.4374 32.7851 18.939 34.2644 24.8589 31.4344C29.4581 28.7055 29.9941 25.1808 30.4945 23.4281C30.5382 23.275 30.9101 21.7219 30.9101 21.7219C30.9784 21.4293 30.6066 21.2488 30.4206 21.4812Z" fill="white"/>
<path d="M19.3001 33.1625C18.1817 33.1625 17.1099 32.9793 16.1036 32.6129C14.8978 32.1727 13.8013 31.4672 12.8497 30.5211C11.8763 29.5531 11.0532 28.3281 10.3997 26.8816C10.397 26.8734 10.3942 26.868 10.3915 26.8598C9.04073 23.2203 9.28956 19.9609 11.1298 17.1719C12.7212 14.7602 15.215 13.1906 17.0251 12.2965C17.8427 11.8945 19.8442 11.2602 21.3782 10.8008C22.338 10.5137 23.1829 10.273 23.5985 10.1555C24.6075 9.8711 24.6185 9.87383 24.6923 9.8793C24.8482 9.89024 24.9384 9.90938 25.0095 9.94766C25.2173 10.0543 25.3349 10.3059 25.3814 10.7379C25.4525 11.4105 25.3595 12.7367 24.8646 14.268C24.4817 15.4492 23.7407 17.0898 22.3735 18.2055C22.2642 18.2957 22.1657 18.3777 22.0755 18.457C21.9552 18.5637 21.8294 18.6648 21.7064 18.7578C21.463 18.941 21.1923 19.1105 20.8806 19.2719C19.2837 20.0977 18.7259 20.9043 18.4196 21.5168C18.1134 22.1266 17.9357 22.7801 17.8864 23.4582C17.7442 25.4516 18.7997 26.7012 19.4423 27.2699C20.3638 28.0848 21.597 28.5414 22.4392 28.3773C22.4583 28.3746 22.4775 28.3719 22.4939 28.3719C22.5321 28.3719 22.6853 28.3582 23.0735 28.2324C24.0607 27.9125 24.9603 27.3848 25.7423 26.6656C27.1587 25.3668 28.6489 23.2996 29.4501 22.1895C29.6989 21.8449 29.863 21.6152 29.9532 21.5113C30.0189 21.4348 30.0872 21.3555 30.1528 21.2734C30.336 21.0465 30.6478 20.9754 30.9103 21.1039C31.1728 21.2324 31.3095 21.5195 31.2411 21.8039C31.2028 21.9652 30.8665 23.3707 30.8228 23.5266C30.779 23.6852 30.7325 23.8602 30.6833 24.0461C30.4345 24.9867 30.0954 26.2773 29.2833 27.6445C28.3126 29.277 26.9235 30.6141 25.0368 31.7324C25.0286 31.7379 25.0204 31.7434 25.0095 31.7461C23.0325 32.6867 21.1048 33.1625 19.3001 33.1625ZM11.0286 26.6082C12.2372 29.2879 14.0747 31.1418 16.336 31.9703C18.7833 32.8645 21.6735 32.5746 24.6978 31.1336C28.7419 28.7273 29.5431 25.6867 30.0216 23.8656C30.0708 23.677 30.12 23.4965 30.1665 23.3324C30.1939 23.2395 30.3716 22.5012 30.5165 21.8996C30.5028 21.916 30.4892 21.9324 30.4728 21.9488C30.4017 22.0309 30.2267 22.2742 30.0052 22.5805C29.1903 23.7125 27.6728 25.8152 26.2044 27.1633C25.3485 27.948 24.3669 28.525 23.2841 28.875C22.9587 28.9816 22.7153 29.0363 22.5431 29.0473C21.4903 29.2387 20.0657 28.7301 18.9884 27.7758C17.7169 26.6492 17.0825 25.0961 17.2028 23.4035C17.2575 22.6352 17.4599 21.8941 17.8071 21.2051C18.1599 20.4996 18.7942 19.5727 20.5661 18.6594C20.8423 18.5172 21.0829 18.3695 21.2935 18.2082C21.4056 18.1234 21.5177 18.0332 21.6243 17.9375C21.72 17.8527 21.8239 17.7652 21.9415 17.6695C23.4208 16.4637 24.1044 14.5223 24.3833 13.4723C24.7825 11.9602 24.7497 10.8801 24.6622 10.5684C23.9239 10.757 18.715 12.2254 17.3314 12.909C13.7357 14.6781 8.14386 18.8152 11.0286 26.6082Z" fill="black"/>
<path d="M30.7735 21.5168C30.4208 21.9269 28.3481 25.6539 26.4751 27.3738C25.6712 28.1121 24.8071 28.8613 23.768 29.1976C23.4809 29.2906 23.2376 29.3508 23.0926 29.3562C21.3126 29.7035 17.3778 27.3519 17.6376 23.718C17.6895 22.9988 17.8837 22.2933 18.2063 21.648C18.5508 20.9617 19.1551 20.1113 20.8176 19.2527C21.0884 19.1133 21.3509 18.9547 21.5942 18.7687C21.7091 18.6812 21.8184 18.591 21.9278 18.498C22.0344 18.4051 22.1411 18.3148 22.2532 18.2246C25.0915 15.9086 25.0778 12.3976 24.9301 11.807C24.9137 11.7441 24.9192 11.6621 24.9383 11.5773C25.0067 11.2766 24.7251 11.0113 24.427 11.0961C22.7344 11.5746 18.9419 12.6711 17.7688 13.2508C13.9981 15.1047 8.32429 19.3621 11.2993 27.382C14.0227 33.4305 19.1661 34.4641 25.0887 31.634C29.688 28.9051 30.243 25.6238 30.7434 23.8738C30.7872 23.7207 30.8282 23.5676 30.8637 23.4144L31.1591 21.6207L30.7735 21.5168Z" fill="#E89B5B"/>
<path d="M18.146 25.2738C16.4507 25.2328 15.007 24.8418 13.8503 24.1145C12.9179 23.5293 12.1742 22.7281 11.6355 21.7301C10.7277 20.0457 10.7332 18.4023 10.7332 18.334L11.28 18.3395C11.28 18.3559 11.2773 19.9254 12.1277 21.4895C13.2542 23.5649 15.2859 24.6531 18.1597 24.7242L18.146 25.2738ZM15.7289 29.6188C15.4417 29.6188 15.1519 29.5996 14.8621 29.5586C13.6699 29.3973 12.4449 28.9078 11.2226 28.0984L11.5234 27.6418C13.6097 29.0227 15.6167 29.4082 17.4871 28.7875C18.8734 28.3281 19.6527 27.4668 19.6609 27.4586L20.0683 27.8223C20.0328 27.8633 19.1824 28.8012 17.6593 29.307C17.0359 29.5149 16.3878 29.6188 15.7289 29.6188ZM20.9898 32.9438L20.7464 32.4543C22.4035 31.6285 23.4699 30.6031 23.8226 29.4902C24.0851 28.6672 23.8691 28.0684 23.8664 28.0629L24.3777 27.866C24.3886 27.8961 24.6621 28.618 24.3585 29.6133C24.1835 30.1848 23.8554 30.7344 23.3796 31.2457C22.7972 31.8746 21.9933 32.4434 20.9898 32.9438ZM19.65 19.9664C18.5343 19.4305 17.6812 18.7168 17.1097 17.8445C16.6503 17.1418 16.3742 16.3406 16.2894 15.4602C16.1472 13.9727 16.5957 12.7859 16.6148 12.7367L17.1261 12.9336C17.1207 12.9445 16.6996 14.0656 16.8363 15.4274C17.0167 17.2266 18.0421 18.5883 19.8878 19.4742L19.65 19.9664Z" fill="white"/>
<path d="M19.3001 33.1625C18.1817 33.1625 17.1099 32.9793 16.1036 32.6129C14.8978 32.1727 13.8013 31.4672 12.8497 30.5211C11.8763 29.5531 11.0532 28.3281 10.3997 26.8816C10.397 26.8734 10.3942 26.868 10.3915 26.8598C9.04073 23.2203 9.28956 19.9609 11.1298 17.1719C12.7212 14.7602 15.215 13.1906 17.0251 12.2965C17.8427 11.8945 19.8442 11.2602 21.3782 10.8008C22.338 10.5137 23.1829 10.273 23.5985 10.1555C24.6075 9.8711 24.6185 9.87383 24.6923 9.8793C24.8482 9.89024 24.9384 9.90938 25.0095 9.94766C25.2173 10.0543 25.3349 10.3059 25.3814 10.7379C25.4525 11.4105 25.3595 12.7367 24.8646 14.268C24.4817 15.4492 23.7407 17.0898 22.3735 18.2055C22.2642 18.2957 22.1657 18.3777 22.0755 18.457C21.9552 18.5637 21.8294 18.6648 21.7064 18.7578C21.463 18.941 21.1923 19.1105 20.8806 19.2719C19.2837 20.0977 18.7259 20.9043 18.4196 21.5168C18.1134 22.1266 17.9357 22.7801 17.8864 23.4582C17.7442 25.4516 18.7997 26.7012 19.4423 27.2699C20.3638 28.0848 21.597 28.5414 22.4392 28.3773C22.4583 28.3746 22.4775 28.3719 22.4939 28.3719C22.5321 28.3719 22.6853 28.3582 23.0735 28.2324C24.0607 27.9125 24.9603 27.3848 25.7423 26.6656C27.1587 25.3668 28.6489 23.2996 29.4501 22.1895C29.6989 21.8449 29.863 21.6152 29.9532 21.5113C30.0189 21.4348 30.0872 21.3555 30.1528 21.2734C30.336 21.0465 30.6478 20.9754 30.9103 21.1039C31.1728 21.2324 31.3095 21.5195 31.2411 21.8039C31.2028 21.9652 30.8665 23.3707 30.8228 23.5266C30.779 23.6852 30.7325 23.8602 30.6833 24.0461C30.4345 24.9867 30.0954 26.2773 29.2833 27.6445C28.3126 29.277 26.9235 30.6141 25.0368 31.7324C25.0286 31.7379 25.0204 31.7434 25.0095 31.7461C23.0325 32.6867 21.1048 33.1625 19.3001 33.1625ZM11.0286 26.6082C12.2372 29.2879 14.0747 31.1418 16.336 31.9703C18.7833 32.8645 21.6735 32.5746 24.6978 31.1336C28.7419 28.7273 29.5431 25.6867 30.0216 23.8656C30.0708 23.677 30.12 23.4965 30.1665 23.3324C30.1939 23.2395 30.3716 22.5012 30.5165 21.8996C30.5028 21.916 30.4892 21.9324 30.4728 21.9488C30.4017 22.0309 30.2267 22.2742 30.0052 22.5805C29.1903 23.7125 27.6728 25.8152 26.2044 27.1633C25.3485 27.948 24.3669 28.525 23.2841 28.875C22.9587 28.9816 22.7153 29.0363 22.5431 29.0473C21.4903 29.2387 20.0657 28.7301 18.9884 27.7758C17.7169 26.6492 17.0825 25.0961 17.2028 23.4035C17.2575 22.6352 17.4599 21.8941 17.8071 21.2051C18.1599 20.4996 18.7942 19.5727 20.5661 18.6594C20.8423 18.5172 21.0829 18.3695 21.2935 18.2082C21.4056 18.1234 21.5177 18.0332 21.6243 17.9375C21.72 17.8527 21.8239 17.7652 21.9415 17.6695C23.4208 16.4637 24.1044 14.5223 24.3833 13.4723C24.7825 11.9602 24.7497 10.8801 24.6622 10.5684C23.9239 10.757 18.715 12.2254 17.3314 12.909C13.7357 14.6781 8.14386 18.8152 11.0286 26.6082Z" fill="#434E52"/>
<path d="M21.1019 14.4648C20.5359 14.4648 20.0765 14.0055 20.0765 13.4395C20.0765 12.8734 20.5359 12.4141 21.1019 12.4141C21.6679 12.4141 22.1273 12.8734 22.1273 13.4395C22.1273 14.0055 21.6652 14.4648 21.1019 14.4648ZM21.1019 12.9609C20.8394 12.9609 20.6234 13.1742 20.6234 13.4395C20.6234 13.702 20.8367 13.918 21.1019 13.918C21.3671 13.918 21.5804 13.7047 21.5804 13.4395C21.5777 13.177 21.3644 12.9609 21.1019 12.9609ZM19.1414 20.1606C18.0257 19.6246 17.1726 18.9109 16.6011 18.0387C16.1418 17.3359 15.8656 16.5348 15.7808 15.6543C15.6386 14.1668 16.0871 12.9801 16.1062 12.9309L16.6175 13.1277C16.6121 13.1387 16.191 14.2598 16.3277 15.6215C16.5082 17.4207 17.5336 18.7824 19.3793 19.6684L19.1414 20.1606ZM17.7714 25.6512C16.0761 25.6102 14.6324 25.2191 13.4757 24.4918C12.5433 23.9066 11.7996 23.1055 11.2609 22.1074C10.3531 20.4231 10.3586 18.7797 10.3586 18.7113L10.9054 18.7168C10.9054 18.7332 10.9027 20.3027 11.7531 21.8668C12.8796 23.9422 14.9113 25.0305 17.7851 25.1016L17.7714 25.6512ZM15.9421 30.1219C15.655 30.1219 15.3652 30.1027 15.0754 30.0617C13.8832 29.9004 12.6582 29.4109 11.4359 28.6016L11.7367 28.1449C13.823 29.5258 15.83 29.9113 17.7004 29.2906C19.0867 28.8313 19.866 27.9699 19.8742 27.9617L20.2816 28.3254C20.2461 28.3664 19.3957 29.3043 17.8726 29.8102C17.2464 30.018 16.6011 30.1219 15.9421 30.1219ZM21.9687 32.7578L21.7363 32.2629C23.2183 31.5684 24.0933 30.6523 24.3367 29.5422C24.5171 28.7164 24.2656 28.0766 24.2629 28.0711L24.7687 27.8633C24.7824 27.8934 25.0832 28.6426 24.8781 29.627C24.7578 30.2012 24.4898 30.7398 24.0824 31.2266C23.5847 31.8199 22.8738 32.334 21.9687 32.7578ZM10.7578 12.9965C10.6867 12.9965 10.6156 12.991 10.5445 12.9801C10.2656 12.9363 9.91559 12.7231 9.80895 12.3566C9.72418 12.0668 9.76793 11.5938 10.4543 10.9922C10.5664 10.8938 10.7414 10.9047 10.8398 11.0168C10.9382 11.1289 10.9273 11.3039 10.8152 11.4023C10.4543 11.7195 10.2793 12.0121 10.3339 12.2035C10.375 12.3402 10.5308 12.425 10.6293 12.4387C10.766 12.4606 10.9109 12.4469 11.0531 12.4004L18.7421 9.90391C18.7504 9.90118 18.7586 9.89844 18.764 9.89844C20.7437 9.43907 22.1191 9.46094 22.8519 9.96133C23.2457 10.232 23.3031 10.5492 23.3086 10.5848L22.7671 10.6641C22.7671 10.6641 22.7671 10.6668 22.7699 10.675C22.7671 10.6641 22.707 10.4289 22.2449 10.2648C21.7691 10.0953 20.8011 9.98868 18.898 10.4262L11.2226 12.9227C11.0695 12.9719 10.9136 12.9965 10.7578 12.9965Z" fill="#434E52"/>
<path d="M10.0442 15.0281C9.97313 15.0281 9.90203 15.0226 9.83094 15.0117C9.55203 14.968 9.02977 14.7738 8.84383 14.3226C8.69617 13.9672 8.78914 13.5625 9.11453 13.1168C9.20477 12.9937 9.3743 12.9691 9.49734 13.0594C9.62039 13.1496 9.645 13.3191 9.55477 13.4422C9.41258 13.6363 9.26219 13.907 9.34695 14.1148C9.43445 14.3226 9.7407 14.4457 9.91297 14.473C10.0442 14.4949 10.1864 14.4812 10.3231 14.4402C10.6677 14.2871 15.2286 12.2719 18.0778 11.9273C18.2282 11.9082 18.3649 12.0148 18.3813 12.1652C18.3977 12.3156 18.2938 12.4523 18.1434 12.4687C15.3243 12.8105 10.5802 14.9242 10.5337 14.9433C10.5255 14.9461 10.5145 14.9516 10.5063 14.9543C10.3559 15.0035 10.1973 15.0281 10.0442 15.0281ZM21.3618 21.5742C20.8286 21.5742 20.3966 21.4265 20.0712 21.1312C19.4341 20.5543 19.4778 19.641 19.4805 19.6027C19.4888 19.4523 19.6173 19.3375 19.7704 19.3457C19.9208 19.3539 20.0356 19.4824 20.0274 19.6328C20.0274 19.6437 20.0001 20.3301 20.443 20.7293C20.7438 21 21.2059 21.0875 21.8184 20.9891C21.9688 20.9644 22.1083 21.0683 22.1302 21.216C22.1548 21.3664 22.0509 21.5058 21.9032 21.5277C21.7118 21.5578 21.5313 21.5742 21.3618 21.5742ZM19.7923 23.5348C19.2126 23.5348 18.7505 23.3707 18.4141 23.048C17.7962 22.4492 17.8727 21.5387 17.8755 21.5004C17.8891 21.35 18.0231 21.2379 18.1735 21.2516C18.3239 21.2652 18.4333 21.3965 18.4223 21.5469C18.4223 21.5578 18.3704 22.2441 18.7997 22.657C19.0895 22.9359 19.5489 23.0398 20.1641 22.9633C20.3145 22.9441 20.4513 23.0508 20.4677 23.2012C20.4868 23.3516 20.3802 23.4883 20.2298 23.5047C20.0766 23.5265 19.9317 23.5348 19.7923 23.5348ZM19.043 25.673C18.7614 25.673 18.5016 25.6129 18.2665 25.4898C17.5063 25.0906 17.3204 24.1965 17.3122 24.1582C17.2821 24.0105 17.3778 23.8656 17.5282 23.8355C17.6759 23.8055 17.8208 23.9012 17.8509 24.0488C17.8536 24.0543 17.9985 24.7324 18.5263 25.0058C18.8845 25.1918 19.3548 25.1617 19.9235 24.9129C20.063 24.8527 20.2243 24.9156 20.2845 25.0551C20.3446 25.1945 20.2817 25.3558 20.1423 25.416C19.743 25.5883 19.3766 25.673 19.043 25.673ZM19.7102 27.7949C19.486 27.7949 19.2727 27.7539 19.0731 27.6691C18.2829 27.3328 18.0231 26.4578 18.0122 26.4195C17.9712 26.2746 18.0559 26.1242 18.2009 26.0805C18.3458 26.0394 18.4962 26.1215 18.5399 26.2664C18.5427 26.2773 18.7423 26.9363 19.2919 27.166C19.6638 27.3219 20.1286 27.2535 20.6755 26.9609C20.8095 26.8898 20.9735 26.9391 21.0446 27.073C21.1157 27.207 21.0665 27.3711 20.9325 27.4422C20.495 27.6773 20.0848 27.7949 19.7102 27.7949ZM12.0677 20.3683C12.0294 20.3683 11.9884 20.3601 11.9528 20.341C11.8161 20.2781 11.7587 20.1141 11.8216 19.9773C11.8954 19.8187 11.9747 19.6601 12.0513 19.5098C12.1196 19.3758 12.2864 19.3238 12.4204 19.3922C12.5544 19.4605 12.6063 19.6273 12.538 19.7613C12.4641 19.9062 12.3876 20.0566 12.3165 20.2098C12.27 20.3109 12.1716 20.3683 12.0677 20.3683ZM12.7294 19.1844C12.6884 19.1844 12.6446 19.1734 12.6036 19.1543C12.4696 19.0859 12.4177 18.9191 12.486 18.7851C13.4102 16.9996 14.9114 16.2558 14.9743 16.223C15.111 16.1574 15.2751 16.2148 15.3407 16.3488C15.4063 16.4855 15.3489 16.6469 15.2149 16.7152C15.193 16.7262 13.8095 17.4234 12.9727 19.0367C12.9235 19.1297 12.8278 19.1844 12.7294 19.1844Z" fill="#434E52"/>
<path d="M26.8688 28.4184C26.8059 28.4184 26.743 28.3965 26.6911 28.3527C26.5762 28.2543 26.5626 28.082 26.661 27.9672C29.2368 24.9566 30.5028 21.4594 30.5137 21.4266C30.5657 21.2844 30.7215 21.2106 30.8637 21.2598C31.0059 21.3117 31.0797 21.4676 31.0305 21.6098C31.0169 21.6453 30.7024 22.5258 30.0544 23.7973C29.4583 24.9703 28.4575 26.7066 27.0766 28.3227C27.0247 28.3856 26.9481 28.4184 26.8688 28.4184Z" fill="#434E52"/>
</svg>
