<svg width="40" height="40" viewBox="0 0 40 40" fill="none" xmlns="http://www.w3.org/2000/svg">
<rect width="40" height="40" rx="20" fill="white"/>
<g clip-path="url(#clip0_408_2842)">
<path d="M31.015 10.1795C30.6294 10.179 30.2474 10.2548 29.8911 10.4025C29.5347 10.5502 29.2111 10.7668 28.9388 11.04L28.9331 11.0342C29.3827 10.5944 29.6792 10.0219 29.7789 9.40088C29.8785 8.77988 29.7761 8.1433 29.4867 7.58491C29.1973 7.02652 28.7362 6.57584 28.1713 6.29928C27.6064 6.02272 26.9677 5.93489 26.3491 6.04874C25.7306 6.16259 25.1649 6.4721 24.7356 6.93166C24.3062 7.39122 24.0357 7.97654 23.9641 8.60139C23.8925 9.22624 24.0234 9.85757 24.3377 10.4024C24.6519 10.9472 25.1328 11.3767 25.7096 11.6275L22.6885 14.6499L25.3109 17.2723L28.314 14.2692C28.5223 14.7569 28.8588 15.1791 29.2878 15.4909C29.7167 15.8027 30.2221 15.9925 30.7503 16.0402C31.2785 16.0878 31.8097 15.9915 32.2876 15.7616C32.7654 15.5316 33.1721 15.1765 33.4643 14.734C33.7566 14.2914 33.9236 13.778 33.9475 13.2483C33.9714 12.7185 33.8514 12.1921 33.6003 11.725C33.3491 11.258 32.9761 10.8677 32.5209 10.5955C32.0657 10.3234 31.5454 10.1796 31.015 10.1795Z" fill="#FFDEC7"/>
<path d="M17.0409 23.0076C20.7499 26.7166 22.2152 31.2653 20.3136 33.1665C20.2017 33.2781 20.0798 33.3791 19.9493 33.4681C24.1435 30.9572 26.9515 26.37 26.9515 21.1264C26.9525 19.8275 26.7776 18.5345 26.4316 17.2825C26.153 16.2834 25.6074 15.3791 24.8535 14.6668C24.0996 13.9544 23.1658 13.461 22.1525 13.2395C21.1369 13.0171 20.1002 12.9053 19.0605 12.9059C13.803 12.9059 9.20518 15.7291 6.69873 19.9418C6.75645 19.8702 6.818 19.8018 6.88312 19.7369C8.78355 17.8336 13.3318 19.2985 17.0409 23.0076Z" fill="#F7A46B"/>
<path d="M20.3136 33.1666C22.2153 31.2649 20.7504 26.7163 17.0413 23.0072C13.3322 19.2981 8.78358 17.8336 6.88151 19.7353C6.8164 19.8002 6.75484 19.8686 6.69713 19.9402C6.5436 20.1983 6.39773 20.4615 6.25951 20.7298C5.45763 22.951 6.98846 26.7277 10.1522 29.8935C13.4539 33.1953 17.4207 34.7187 19.5937 33.6722C19.7125 33.6056 19.8304 33.5373 19.9473 33.4673C20.0784 33.3786 20.2011 33.278 20.3136 33.1666Z" fill="#FFCB41"/>
<path d="M20.3136 33.1666C22.2153 31.2649 20.7504 26.7163 17.0413 23.0072C13.3322 19.2981 8.78358 17.8336 6.88151 19.7353C6.8164 19.8002 6.75484 19.8686 6.69713 19.9402C6.5436 20.1983 6.39773 20.4615 6.25951 20.7298C5.45763 22.951 6.98846 26.7277 10.1522 29.8935C13.4539 33.1953 17.4207 34.7187 19.5937 33.6722C19.7125 33.6056 19.8304 33.5373 19.9473 33.4673C20.0784 33.3786 20.2011 33.278 20.3136 33.1666Z" fill="#EF6E69"/>
<path d="M15.522 28.892C16.1338 28.2807 15.6625 26.8179 14.4698 25.6251C13.277 24.4323 11.8142 23.9611 11.2028 24.5728C11.1818 24.5939 11.162 24.616 11.1434 24.6392C11.094 24.7212 11.047 24.8058 11.0024 24.8933C10.7447 25.6075 11.2368 26.822 12.2546 27.8402C13.3163 28.9019 14.5902 29.3919 15.2909 29.0551C15.3291 29.0338 15.367 29.0118 15.4044 28.9891C15.4465 28.9605 15.4859 28.928 15.522 28.892Z" fill="#F9B180"/>
<path d="M12.9717 16.1618C12.9302 16.1618 12.8898 16.1493 12.8556 16.1258C12.8214 16.1023 12.7952 16.069 12.7804 16.0302C12.7656 15.9915 12.7628 15.9492 12.7726 15.9089C12.7823 15.8686 12.804 15.8322 12.8348 15.8045C12.9168 15.7304 14.9045 13.9873 18.1907 14.2368C18.245 14.241 18.2955 14.2665 18.331 14.3078C18.3665 14.3492 18.3841 14.4029 18.38 14.4573C18.3759 14.5116 18.3503 14.5621 18.309 14.5976C18.2676 14.6331 18.2139 14.6507 18.1596 14.6466C15.0545 14.4102 13.127 16.0942 13.1077 16.111C13.0701 16.144 13.0217 16.1621 12.9717 16.1618Z" fill="white"/>
</g>
<defs>
<clipPath id="clip0_408_2842">
<rect width="28" height="28" fill="white" transform="translate(6 6)"/>
</clipPath>
</defs>
</svg>
