<svg width="40" height="40" viewBox="0 0 40 40" fill="none" xmlns="http://www.w3.org/2000/svg">
<rect width="40" height="40" rx="20" fill="white"/>
<path d="M31.7566 21.6699C31.7595 22.5151 31.4994 23.3403 31.0125 24.0311C30.5256 24.7218 29.8359 25.2439 29.039 25.525C28.2422 25.806 27.3776 25.8321 26.5653 25.5996C25.7529 25.3671 25.033 24.8876 24.5053 24.2275C24.2382 23.9053 24.0243 23.5425 23.8715 23.1529C23.5016 23.5804 23.051 23.9307 22.5456 24.1838C22.0401 24.4368 21.4897 24.5876 20.9259 24.6275C20.3621 24.6675 19.7959 24.5957 19.2599 24.4165C18.7238 24.2372 18.2284 23.9538 17.8019 23.5827C17.282 23.1311 16.8801 22.5593 16.631 21.9171C16.406 22.5446 16.0383 23.1111 15.5567 23.572C15.1124 23.9686 14.5867 24.2632 14.0166 24.435C13.4464 24.6069 12.8455 24.6519 12.2561 24.5669C11.6667 24.4819 11.103 24.2689 10.6046 23.9429C10.1062 23.6168 9.68516 23.1857 9.37098 22.6796C9.05679 22.1736 8.85709 21.6049 8.78588 21.0135C8.71467 20.4221 8.77368 19.8222 8.95877 19.2561C9.14385 18.6899 9.45053 18.171 9.85729 17.736C10.2641 17.3009 10.7611 16.9601 11.3134 16.7375C11.2586 16.505 11.2298 16.2672 11.2275 16.0283C11.2206 15.4029 11.3993 14.7895 11.7412 14.2659C12.0831 13.7422 12.5726 13.3318 13.1478 13.0867C13.723 12.8416 14.358 12.7728 14.9723 12.889C15.5867 13.0052 16.1527 13.3011 16.5988 13.7394C16.6258 12.6564 17.0819 11.6285 17.8666 10.8818C18.6513 10.1352 19.7004 9.73092 20.783 9.75799C21.8657 9.78507 22.8932 10.2413 23.6397 11.0262C24.3861 11.8111 24.7902 12.8606 24.7631 13.9436V14.3734C24.9347 14.3574 25.1073 14.3574 25.2788 14.3734C26.1793 14.3705 27.0445 14.7234 27.6862 15.3553C28.328 15.9871 28.6943 16.8469 28.7057 17.7476C29.5729 17.9779 30.3409 18.4861 30.8919 19.1945C31.4429 19.9029 31.7467 20.7724 31.7566 21.6699Z" fill="#8CC34B"/>
<path d="M27.8284 25.7566C27.0889 25.7607 26.358 25.6005 25.69 25.288C25.0221 24.9755 24.4344 24.5188 23.9706 23.9517C23.8103 23.7636 23.6683 23.561 23.5467 23.3466C22.608 24.1427 21.4101 24.5805 20.1711 24.5805C18.9321 24.5805 17.7343 24.1427 16.7956 23.3466C16.4377 23.0425 16.1239 22.6914 15.8629 22.3034C15.6312 22.6884 15.3458 23.0396 15.0151 23.3466C14.0436 24.2133 12.7637 24.667 11.454 24.609C10.7964 24.5675 10.1542 24.3954 9.56586 24.1031C8.97756 23.8109 8.4554 23.4045 8.03079 22.9085C7.1599 21.958 6.70393 20.7084 6.76144 19.4297C6.81895 18.151 7.38532 16.9459 8.33814 16.0749C8.68752 15.7672 9.08017 15.5107 9.50395 15.3133V14.8751C9.50667 13.8521 9.91857 12.8712 10.6505 12.1448C11.3824 11.4185 12.3755 11.0051 13.4147 10.9941C14.0974 10.9957 14.7684 11.168 15.3648 11.4949C15.5859 10.549 16.092 9.69082 16.8168 9.03273C17.5196 8.40035 18.3927 7.98093 19.3316 7.82479C20.2704 7.66865 21.2351 7.78241 22.11 8.15243C22.9848 8.52245 23.7326 9.13302 24.2638 9.91092C24.795 10.6888 25.0869 11.601 25.1046 12.5382C26.1543 12.5322 27.1689 12.9098 27.952 13.5978C28.7351 14.2858 29.2311 15.2354 29.3439 16.2627C30.3355 16.5799 31.1997 17.1978 31.8128 18.028C32.4258 18.8582 32.7562 19.8581 32.7566 20.8845C32.7566 22.1749 32.2366 23.4125 31.3107 24.3259C30.3848 25.2393 29.1286 25.7539 27.8178 25.7566H27.8284ZM23.6951 21.9278H23.7904C23.8813 21.944 23.9663 21.9834 24.0369 22.042C24.1076 22.1005 24.1614 22.1763 24.1932 22.2616C24.4798 22.9818 24.9797 23.6005 25.6279 24.0377C26.276 24.4748 27.0427 24.7102 27.8284 24.7134C28.8581 24.7106 29.8447 24.306 30.5719 23.5882C31.299 22.8705 31.7074 21.8982 31.7074 20.8845C31.7049 20.025 31.4088 19.1914 30.8667 18.5177C30.3246 17.844 29.568 17.3694 28.7186 17.1704C28.6037 17.1443 28.5012 17.0805 28.4281 16.9895C28.3549 16.8985 28.3153 16.7857 28.3159 16.6696C28.3159 15.8395 27.9809 15.0434 27.3847 14.4565C26.7884 13.8695 25.9797 13.5397 25.1364 13.5397C24.9812 13.5294 24.8254 13.5294 24.6701 13.5397C24.5902 13.5544 24.508 13.5507 24.4298 13.5291C24.3516 13.5075 24.2795 13.4684 24.219 13.415C24.1586 13.3615 24.1114 13.2951 24.0812 13.2209C24.051 13.1466 24.0386 13.0665 24.0448 12.9868V12.5695C24.0539 11.5779 23.6708 10.6217 22.9765 9.90326C22.2823 9.18478 21.3313 8.76035 20.3248 8.71975C19.8084 8.70023 19.2932 8.78249 18.8095 8.96171C18.3258 9.14092 17.8834 9.41348 17.5082 9.76337C17.133 10.1133 16.8327 10.5334 16.6247 10.9992C16.4168 11.4649 16.3055 11.9669 16.2975 12.4756C16.2923 12.5761 16.2589 12.6733 16.2009 12.7562C16.1428 12.8391 16.0625 12.9045 15.9689 12.9451C15.8727 12.9797 15.7689 12.9882 15.6683 12.9699C15.5676 12.9515 15.4738 12.9069 15.3966 12.8407C14.8658 12.3342 14.154 12.0532 13.4147 12.0583C12.6538 12.0582 11.9238 12.3544 11.3838 12.882C10.8438 13.4097 10.5376 14.1262 10.532 14.8751C10.5401 15.0894 10.5684 15.3025 10.6168 15.5116C10.648 15.6346 10.6316 15.7646 10.5709 15.8764C10.5102 15.9882 10.4095 16.0739 10.2882 16.1167C9.84407 16.2864 9.43475 16.5338 9.08002 16.847C8.67843 17.1781 8.34892 17.5857 8.11127 18.0452C7.87363 18.5048 7.73273 19.0069 7.69704 19.5213C7.66135 20.0358 7.7316 20.5521 7.90358 21.0392C8.07555 21.5263 8.34571 21.9742 8.69784 22.356C9.04998 22.7377 9.47683 23.0456 9.95278 23.261C10.4287 23.4764 10.944 23.595 11.4676 23.6095C11.9913 23.6241 12.5125 23.5344 13.0001 23.3458C13.4876 23.1572 13.9315 22.8736 14.305 22.512C14.7796 22.0848 15.143 21.5517 15.3648 20.9575C15.4036 20.8599 15.4703 20.7754 15.5568 20.7143C15.6433 20.6532 15.746 20.6181 15.8523 20.6132C15.9596 20.6139 16.0643 20.646 16.153 20.7055C16.2417 20.7649 16.3105 20.849 16.3504 20.9471C16.61 21.5958 17.0354 22.1674 17.5853 22.6067C18.1352 23.0461 18.7911 23.3381 19.4894 23.4546C20.1877 23.5711 20.9047 23.5081 21.5709 23.2716C22.2372 23.0352 22.8301 22.6334 23.2923 22.1051C23.3434 22.0499 23.4056 22.0056 23.4749 21.975C23.5442 21.9445 23.6191 21.9284 23.6951 21.9278Z" fill="#434E52"/>
<path d="M22.5562 31.7567H18.1321C18.0981 28.8092 17.303 25.9046 15.8036 23.2507C16.3043 22.7926 15.5708 22.4041 15.8036 21.7567C16.444 23.3703 19.0751 24.3264 20.8913 24.3264C21.5326 24.312 22.1606 24.1672 22.7234 23.9039C23.2862 23.6407 23.7677 23.2665 24.1279 22.8125C24.2658 23.2109 24.4781 23.5876 24.7566 23.928C23.2255 26.3248 22.4662 29.0265 22.5562 31.7567Z" fill="#388D3B"/>
<path d="M21.8708 32.7567H16.9385C16.7944 32.7567 16.6563 32.7003 16.5544 32.6C16.4525 32.4996 16.3953 32.3635 16.3953 32.2216C16.3953 32.1681 16.3953 27.0414 13.8531 23.3811C13.7789 23.2754 13.7458 23.147 13.7597 23.0193C13.7737 22.8915 13.8338 22.773 13.9291 22.6854C14.416 22.2474 14.7886 21.7004 15.0155 21.0907C15.0579 20.9917 15.1289 20.9072 15.2197 20.8478C15.3105 20.7884 15.4171 20.7567 15.5262 20.7567C15.6352 20.7567 15.7418 20.7884 15.8326 20.8478C15.9234 20.9072 15.9944 20.9917 16.0368 21.0907C16.4486 22.1056 17.2491 22.9203 18.2654 23.3588C19.2817 23.7974 20.4323 23.8246 21.4688 23.4346C22.1029 23.1865 22.666 22.7897 23.1093 22.2787C23.1725 22.2096 23.2526 22.1577 23.342 22.1277C23.4314 22.0977 23.527 22.0907 23.6199 22.1074C23.7111 22.125 23.7965 22.1645 23.8685 22.2224C23.9405 22.2802 23.9969 22.3547 24.0327 22.4392C24.1778 22.8272 24.387 23.1888 24.652 23.5095C24.72 23.6011 24.7566 23.7117 24.7566 23.8252C24.7566 23.9387 24.72 24.0493 24.652 24.141C23.0324 26.53 22.2189 29.3614 22.3271 32.2323C22.3325 32.3052 22.3216 32.3784 22.2954 32.4468C22.2691 32.5152 22.228 32.5771 22.175 32.6283C22.0904 32.7025 21.9836 32.7476 21.8708 32.7567ZM17.5251 31.6864H21.371C21.3736 28.9065 22.1719 26.1837 23.6742 23.8306L23.4678 23.5202C22.8964 24.0003 22.2285 24.3558 21.5077 24.5635C20.787 24.7712 20.0298 24.8263 19.2859 24.7252C18.542 24.6241 17.8283 24.3691 17.1915 23.977C16.5548 23.5848 16.0094 23.0644 15.5913 22.4499C15.4322 22.6976 15.2504 22.9305 15.0481 23.1456C16.5268 25.765 17.3569 28.6913 17.4708 31.6864H17.5251Z" fill="#434E52"/>
<path d="M18.1018 27.7567C17.9512 27.7573 17.8049 27.7166 17.6871 27.6414C17.5693 27.5663 17.487 27.4612 17.4539 27.3435C17.067 26.0246 16.5178 24.7398 15.8144 23.5078C15.7429 23.3799 15.7375 23.2345 15.7995 23.1034C15.8614 22.9723 15.9856 22.8663 16.145 22.8084C16.2229 22.7783 16.3076 22.7609 16.394 22.7574C16.4805 22.7539 16.5669 22.7643 16.6483 22.788C16.7296 22.8117 16.8042 22.8482 16.8676 22.8954C16.9311 22.9426 16.9821 22.9995 17.0176 23.0627C17.7592 24.3584 18.3351 25.711 18.7364 27.0998C18.758 27.1673 18.7623 27.2376 18.7492 27.3065C18.7361 27.3754 18.7058 27.4415 18.6602 27.5008C18.6145 27.5602 18.5544 27.6115 18.4835 27.6518C18.4125 27.6922 18.3322 27.7206 18.2472 27.7355L18.1018 27.7567Z" fill="#434E52"/>
<path d="M20.2726 28.7567C20.1357 28.7567 20.0045 28.7015 19.9077 28.6032C19.811 28.5049 19.7566 28.3716 19.7566 28.2325C19.7536 26.7695 20.1082 25.3286 20.7885 24.0391C20.82 23.9775 20.8633 23.9229 20.9157 23.8785C20.9682 23.834 21.0288 23.8005 21.0941 23.7801C21.1593 23.7596 21.228 23.7525 21.296 23.7591C21.364 23.7658 21.43 23.7862 21.4902 23.819C21.6089 23.8874 21.6967 24 21.7352 24.133C21.7737 24.266 21.7599 24.409 21.6966 24.5319C21.0892 25.6683 20.7666 26.9393 20.7575 28.2325C20.7578 28.3663 20.7077 28.495 20.6175 28.5925C20.5274 28.6899 20.404 28.7487 20.2726 28.7567Z" fill="#434E52"/>
</svg>
