<svg width="20" height="20" viewBox="0 0 20 20" fill="none" xmlns="http://www.w3.org/2000/svg">
<path d="M17.9414 9.55664L12.6191 4.23438C12.3789 3.99414 11.9844 3.99414 11.7441 4.23438L11.7305 4.24805C11.4902 4.48828 11.4902 4.88086 11.7305 5.12109L16.002 9.39258H5.03125C4.69336 9.39258 4.41602 9.66992 4.41602 10.0078C4.41602 10.3457 4.69336 10.623 5.03125 10.623H15.9707L11.7422 14.8535C11.498 15.0977 11.498 15.4961 11.7422 15.7402C11.9863 15.9844 12.3848 15.9844 12.6289 15.7402L17.9238 10.4453C17.9238 10.4453 17.9258 10.4434 17.9277 10.4434L17.9414 10.4297C18.1816 10.1895 18.1816 9.79687 17.9414 9.55664Z" fill="#EA4148"/>
<path d="M1.90625 10.0117C1.90625 10.093 1.92232 10.1735 1.95353 10.2487C1.98474 10.3238 2.03049 10.392 2.08816 10.4495C2.14584 10.507 2.21431 10.5526 2.28966 10.5837C2.36502 10.6148 2.44578 10.6309 2.52734 10.6309C2.60891 10.6309 2.68967 10.6148 2.76503 10.5837C2.84038 10.5526 2.90885 10.507 2.96652 10.4495C3.0242 10.392 3.06995 10.3238 3.10116 10.2487C3.13237 10.1735 3.14844 10.093 3.14844 10.0117C3.14844 9.93041 3.13237 9.8499 3.10116 9.77478C3.06995 9.69967 3.0242 9.63141 2.96652 9.57392C2.90885 9.51643 2.84038 9.47082 2.76503 9.43971C2.68967 9.40859 2.60891 9.39258 2.52734 9.39258C2.44578 9.39258 2.36502 9.40859 2.28966 9.43971C2.21431 9.47082 2.14584 9.51643 2.08816 9.57392C2.03049 9.63141 1.98474 9.69967 1.95353 9.77478C1.92232 9.8499 1.90625 9.93041 1.90625 10.0117Z" fill="#EA4148"/>
</svg>