<svg width="24" height="24" viewBox="0 0 24 24" fill="none" xmlns="http://www.w3.org/2000/svg">
<g clip-path="url(#clip0_65_780)">
<mask id="mask0_65_780" style="mask-type:alpha" maskUnits="userSpaceOnUse" x="0" y="0" width="24" height="24">
<rect width="24" height="24" rx="6" fill="#D9D9D9"/>
</mask>
<g mask="url(#mask0_65_780)">
<path d="M28 2.68221C27.6463 2.91438 27.1417 3.12894 26.9296 3.37009C26.8499 3.4506 26.8058 3.53973 26.8236 3.62922V4.54963L26.5581 5.45206L26.2927 6.34552L26.0009 7.32846L25.3991 9.33891L24.8152 11.3224L24.3729 12.8146C24.3729 13.0468 24.364 13.2793 24.3462 13.5025C24.2843 14.3604 24.1074 15.1823 23.8242 15.9507C23.6562 16.4244 23.4527 16.8801 23.205 17.3088C23.1164 17.4785 23.0104 17.6485 22.9043 17.8091C22.5506 18.3719 22.1257 18.8902 21.6571 19.3459C21.2945 19.7121 20.8963 20.0517 20.4629 20.3378H20.454C20.3832 20.4003 20.3035 20.4539 20.2152 20.4985C19.9409 20.6861 19.6491 20.8471 19.3484 20.9897C19.1448 21.0968 18.9413 21.1863 18.7292 21.2668C18.6851 21.2938 18.6321 21.3114 18.5876 21.3294C18.0833 21.5705 17.4994 21.7315 16.9155 21.812C16.8802 21.821 16.8536 21.821 16.8183 21.83C16.4646 21.8925 16.1194 21.9461 15.7657 21.973C15.6063 21.991 15.4384 22 15.2793 22L14.6512 21.9644L11.6255 21.8034C11.6255 21.7944 11.6166 21.8034 11.6166 21.8034L10.095 21.7229C9.98007 21.7229 9.85624 21.7229 9.7413 21.7139C9.2634 21.696 8.80365 21.6424 8.34355 21.5443H8.33465C7.49415 21.3836 6.68923 21.0976 5.93733 20.7134C5.52171 20.4988 5.11462 20.2577 4.73423 19.9806C4.57481 19.8645 4.42464 19.7394 4.27412 19.6054C3.8496 19.2481 3.4692 18.8639 3.11514 18.4708C3.06211 18.4172 3.01799 18.3637 2.97351 18.3097C2.92049 18.2562 2.86747 18.1937 2.82299 18.1401C2.48672 17.7114 2.20382 17.2733 1.97359 16.8089C1.76115 16.3978 1.59319 15.96 1.46046 15.4777C1.40744 15.3081 1.36332 15.1471 1.32773 14.9685C1.31884 14.9595 1.30994 14.9415 1.30994 14.9239C1.22134 14.5577 1.14198 14.1735 1.0975 13.7893C1.04448 13.4946 1.01779 13.1995 1.01779 12.8958C1 12.7797 1 12.6547 1 12.5386L2.68955 9.9028L4.34386 7.32954L5.09576 6.15899L5.77685 5.10453L6.00672 4.73831V3.8179C6.02451 3.61232 6.03341 3.39813 6.02451 3.20154C6.01562 2.57619 5.89178 1.96846 5.68824 1.38768C5.4936 0.771315 5.21924 0.190535 4.93634 -0.345681C4.60007 -0.962042 4.24636 -1.51623 3.95422 -2.0165C3.5208 -2.74931 3.22011 -3.3477 3.29946 -3.76783C3.93642 -3.91986 4.60861 -4 5.29005 -4H19.4448C23.1427 -4 26.3275 -1.67688 27.6456 1.59325C27.7876 1.94078 27.9114 2.30701 28 2.68221Z" fill="#304FFE"/>
<path d="M28 4.9181V5.15879L26.7734 5.87225L25.9912 6.32709L25.129 6.8264L23.4048 7.834L21.716 8.81506L19.9922 9.81405L19.3079 10.2154C19.3079 10.6434 19.2014 11.0358 19.0058 11.3927C18.7302 11.91 18.2683 12.3379 17.6817 12.7038C17.0861 13.0693 16.3575 13.3638 15.5396 13.5776C15.5396 13.5776 15.5396 13.5686 15.5306 13.5776C12.3665 14.3979 8.04725 14.0234 5.94984 12.4541C5.36319 12.0172 4.95458 11.482 4.77654 10.8668C4.72328 10.6617 4.69647 10.4389 4.69647 10.2158V3.80325C4.7054 3.66945 4.61639 3.53565 4.45659 3.40186C3.97647 3.0184 2.84787 2.65288 1.58592 2.287C0.599239 2.01044 -0.458225 1.73424 -1.34695 1.46665C-2.04907 1.2525 -2.64465 1.03871 -3 0.833536C-2.8402 0.521463 -2.65323 0.209391 -2.45768 -0.0851047C-1.21325 -1.91342 0.688612 -3.25999 2.89256 -3.76828C3.53247 -3.92001 4.20777 -4 4.89237 -4H14.4911C19.2636 -3.16171 23.6633 -1.20857 27.3515 1.58251C27.4938 1.93045 27.6182 2.29597 27.7069 2.67046C27.8667 3.25909 27.9646 3.8653 27.9914 4.49877C28 4.63293 28 4.77533 28 4.9181Z" fill="#4928F4"/>
<path d="M28 4.56945V8.52387L27.8035 9.13377L27.1335 11.2232L26.4369 13.3753L26.0709 14.523L25.7314 15.5898L25.4009 16.603L25.0793 17.6071L24.9098 18.1362L24.6863 18.8355C24.6863 19.5168 24.6684 20.1177 24.6238 20.6288C24.6148 20.6825 24.6059 20.7363 24.6059 20.79C24.5523 21.2654 24.4808 21.6686 24.3648 22.0094C24.3558 22.0632 24.3379 22.1169 24.3203 22.162C24.0882 22.8076 23.7397 23.2202 23.2217 23.4889C23.0967 23.5607 22.9537 23.6144 22.8021 23.6682C22.3286 23.8298 21.7305 23.9102 20.998 23.9553C20.462 23.991 19.8459 24 19.1493 24H18.5332L17.4706 23.9553L17.283 23.9463L15.3449 23.8655L13.3802 23.7847L6.9052 23.5156L5.2261 23.4438H4.99403C4.29745 23.4348 3.69895 23.3901 3.18092 23.3183C2.43082 23.2018 1.85029 23.0045 1.41237 22.7084C0.787283 22.3048 0.420854 21.713 0.206745 20.8881C0.153217 20.6908 0.108671 20.4845 0.081728 20.2605C-0.00772357 19.7404 -0.0522697 19.1396 -0.0792131 18.4673C-0.0792131 18.3327 -0.0792131 18.1982 -0.0881941 18.0547C-0.0971751 18.0456 -0.0881941 18.0456 -0.0881941 18.0456V17.5256C-0.0971751 17.2655 -0.0971751 16.9964 -0.0971751 16.7184L-0.0526295 15.2746L-0.025686 14.2434L0.00987911 13.042V12.8718L0.0723877 10.6659L0.134896 8.46003L0.197404 6.38869L0.250932 4.35341L0.268894 3.81528C0.268894 3.5372 -0.668732 3.37598 -1.71377 3.24145C-2.54434 3.13397 -3.45539 3.03515 -4 2.90963C-3.95545 2.70333 -3.91055 2.49702 -3.85702 2.29973C-3.69644 1.65413 -3.45503 1.04423 -3.15147 0.461382C-2.99088 0.147596 -2.803 -0.16619 -2.60649 -0.462303C-0.677354 -1.31421 1.33226 -1.97785 3.43096 -2.40814C5.27065 -2.79369 7.19116 -3 9.17383 -3C15.7473 -3 21.8203 -0.767432 26.6255 2.99872C27.09 3.35723 27.5456 3.74279 27.9921 4.14638C28 4.28271 28 4.4259 28 4.56945Z" fill="#6200EA"/>
<path d="M28 7.63103V11.586L27.5112 12.5093L26.5781 14.2953L26.0804 15.2361L25.627 16.0985L25.4314 16.473C25.4314 16.7432 25.4314 17.0046 25.4135 17.2572C25.4135 17.6318 25.3957 17.9889 25.3692 18.32C25.3338 18.7121 25.2802 19.0692 25.2269 19.4003C25.0935 20.0885 24.9069 20.681 24.6402 21.1688C24.6048 21.2297 24.569 21.2907 24.5336 21.3429C24.436 21.4995 24.3202 21.6478 24.1958 21.7872C24.0356 21.9789 23.8579 22.1443 23.6534 22.2837C23.3512 22.5101 22.9955 22.693 22.5868 22.8325C22.0802 23.0154 21.4935 23.1373 20.8002 23.207C20.3468 23.2505 19.8491 23.2768 19.3067 23.2768L18.9335 23.2943L17.0846 23.3987H17.0757L15.1113 23.5119L13.1112 23.6251L10.3557 23.7821L7.00442 23.9737L6.51566 24C6.0623 24 5.63575 23.9737 5.22673 23.9215C5.18239 23.9128 5.14664 23.904 5.1023 23.904C4.4977 23.8083 3.94673 23.6514 3.44903 23.4334C2.84442 23.172 2.32027 22.8237 1.87584 22.4053C1.48469 22.0307 1.14682 21.604 0.871508 21.1246C0.809296 21.0114 0.747084 20.9067 0.69381 20.7847C0.427083 20.2707 0.213989 19.6957 0.0538101 19.0685C0.0269947 18.964 0.000535965 18.8505 -0.0173409 18.7373C-0.0706146 18.5369 -0.11495 18.3281 -0.141765 18.1101C-0.239374 17.5526 -0.293006 16.9601 -0.319464 16.3416V16.3329C-0.328402 16.0802 -0.337341 15.8364 -0.337341 15.575L-0.772827 14.5556L-0.835039 14.3987L-0.888313 14.268L-1.55513 12.7087L-1.66168 12.456L-2.30168 10.949L-3.01318 9.2688H-3.02212L-3.74221 7.57006L-4 6.9516V5.56647C-4 5.01774 -3.94673 4.47742 -3.84876 3.95497C-3.80442 3.75454 -3.75973 3.55412 -3.70646 3.36245C-2.95097 2.93566 -2.15973 2.54356 -1.35097 2.19526C0.497877 1.38513 2.48009 0.784197 4.53345 0.418028C6.0623 0.147869 7.65336 0 9.2623 0C15.7599 0 21.6533 2.30844 26.2577 6.07174C26.4354 6.2112 26.6045 6.35066 26.7733 6.49853C27.1912 6.85594 27.5999 7.23052 28 7.63103Z" fill="#673AB7"/>
<path d="M28 9.75476V14.4032L27.4934 15.4792L26.5334 17.5142L26.5244 17.5415C26.5244 17.9304 26.5065 18.2832 26.4801 18.5997C26.3911 19.6398 26.1422 20.3001 25.7335 20.7071C25.4404 21.0145 25.0757 21.1866 24.6223 21.2768C24.5955 21.2859 24.5601 21.2859 24.5333 21.295C24.391 21.3223 24.2401 21.3401 24.0799 21.3401C23.5289 21.3943 22.88 21.3583 22.1331 21.3041C22.053 21.3041 21.9643 21.295 21.8753 21.2859C21.3329 21.2499 20.7555 21.2135 20.1155 21.1866C19.7687 21.1775 19.4043 21.1684 19.0311 21.1684H19.0132L18.1154 21.2408H18.1065L16.0888 21.3856L13.7866 21.5664L13.4488 21.5937L10.7554 21.7926L9.35991 21.9007L7.9823 22C7.74239 22 7.51106 22 7.28009 21.9909C7.28009 21.9909 7.27115 21.9818 7.27115 21.9909C6.26682 21.9727 5.36903 21.9094 4.56885 21.7559C3.83124 21.6293 3.1823 21.4303 2.63097 21.132C2.06212 20.8515 1.59088 20.4536 1.20867 19.9472C0.844335 19.4499 0.577609 18.8256 0.408492 18.0752V18.0661C0.284067 17.46 0.212916 16.7546 0.212916 15.9587L0.0795531 15.7146L-0.711687 14.2766L-0.827173 14.0776L-0.889385 13.951L-1.71602 12.4587L-2.12505 11.7083L-2.64063 10.7766L-3.52947 9.15779L-4 8.30764V4.9794C-3.2177 4.45483 -2.40894 3.99356 -1.57336 3.57775C-0.557198 3.05142 0.497916 2.60685 1.5823 2.24813C2.77327 1.85016 4.01788 1.53367 5.28894 1.32558C6.57788 1.10841 7.90221 1 9.2623 1C15.3069 1 20.8535 3.1976 25.1289 6.85142C25.3245 7.0053 25.5112 7.17701 25.6978 7.33998C26.4443 8.01843 27.1555 8.75072 27.8044 9.51976C27.8756 9.60088 27.9467 9.67327 28 9.75476Z" fill="#8E24AA"/>
<path d="M28 12.6509V19C27.7865 18.8771 27.4934 18.7277 27.129 18.5698C26.9335 18.4734 26.7114 18.3766 26.4801 18.2886C26.1422 18.1392 25.7779 17.999 25.3688 17.8584C25.2798 17.8234 25.1912 17.7969 25.0932 17.7705C24.933 17.709 24.7642 17.6564 24.5955 17.6037C24.071 17.4455 23.4932 17.2964 22.8889 17.1647C22.658 17.1209 22.4177 17.0767 22.1778 17.0418C21.4044 16.91 20.5778 16.8309 19.7154 16.8221C19.6442 16.8132 19.5642 16.8132 19.493 16.8132L17.2087 16.8309L14.0977 16.8486H14.0888L7.43097 16.9012C5.3154 16.9012 4.01752 17.4017 3.23558 17.6037C3.23558 17.6037 3.22664 17.6037 3.22664 17.6126C2.4 17.8234 2.14221 17.6917 2.07106 16.2601C2.05318 15.8649 2.04425 15.3555 2.04425 14.7321L1.54655 14.3545L0.675575 13.7046L0.142123 13.3005L0.0355749 13.2214L-1.44 12.1151L-1.66239 11.9484L-2.12469 11.5973L-2.97815 10.965L-4 10.1922V7.20645C-3.91097 7.13616 -3.83124 7.0747 -3.74221 7.02208C-2.45327 6.14398 -1.07566 5.39763 0.382391 4.79151C1.68027 4.24721 3.04894 3.81664 4.45336 3.50934C4.83558 3.43022 5.22673 3.3511 5.62682 3.29847C6.80921 3.09643 8.02699 3 9.2623 3C14.6047 3 19.5112 4.83531 23.4045 7.87368C23.9912 8.33039 24.5601 8.81324 25.0935 9.33141C25.8226 10.0163 26.5069 10.7453 27.138 11.5178C27.2624 11.6761 27.3868 11.8339 27.5112 12.0007C27.68 12.2119 27.8398 12.4316 28 12.6509Z" fill="#C2185B"/>
<path d="M28 16.2042V19.0441C28 19.6069 27.9467 20.161 27.8398 20.6977C27.68 21.4942 27.4043 22.2563 27.0311 22.9664C26.8355 23.0096 26.6135 23.0096 26.3642 22.9751C25.8043 22.8801 25.1465 22.5941 24.4353 22.2218C24.3999 22.2131 24.3642 22.1957 24.3377 22.1786C24.1153 22.0661 23.8843 21.9449 23.6534 21.8063C23.1821 21.5552 22.6844 21.278 22.1867 21.0185C22.0802 20.9666 21.9733 20.9147 21.8757 20.8625C21.3068 20.5769 20.7201 20.3171 20.1334 20.1178H20.1244C20 20.0747 19.8666 20.0311 19.7333 19.9966C19.2266 19.858 18.7111 19.7716 18.2134 19.7716L17.2355 19.4944L12.9067 18.2737H12.8978L10.2402 17.5204H10.2312L9.07566 17.1912C5.73336 17.1912 3.68 18.5767 2.6846 18.0484C2.29345 17.8491 2.06248 17.3469 1.98239 16.3599C1.95558 16.0827 1.94699 15.7709 1.94699 15.4073L0.906905 14.9138L0.86257 14.8964H0.853631L0.107083 14.5328L-0.710615 14.1518L-0.772827 14.1257L-0.924067 14.0476L-2.66637 13.225L-4 12.5936V9.62378C-3.84876 9.49387 -3.68894 9.37267 -3.52876 9.25147C-3.36 9.12156 -3.19088 9.00036 -3.02212 8.87045H-3.01318C-1.96416 8.13453 -0.853274 7.48499 0.329117 6.94828C1.70673 6.30745 3.17372 5.81393 4.69363 5.49351C4.91602 5.44162 5.14699 5.38973 5.37797 5.3549C6.64009 5.1212 7.93797 5 9.2623 5C13.9468 5 18.2491 6.48054 21.7155 8.97424C22.7198 9.70145 23.6534 10.5067 24.5065 11.3812C25.2087 12.0997 25.8576 12.8792 26.4443 13.6931C26.4887 13.7537 26.5334 13.8143 26.5777 13.8662C26.9066 14.3336 27.2088 14.81 27.4934 15.3035C27.68 15.5982 27.8398 15.9012 28 16.2042Z" fill="#D81B60"/>
<path d="M28 20.4262C27.8394 21.1943 27.5623 21.9292 27.1872 22.614C27.0176 22.9229 26.83 23.2151 26.6244 23.4989C26.4994 23.6742 26.3654 23.8411 26.2313 24C25.9097 23.8831 25.4361 23.7162 24.8554 23.5325V23.5241C24.3686 23.3662 23.8771 23.2213 23.3814 23.0898C23.2294 23.0482 23.0778 23.0062 22.9168 22.9646C22.2825 22.8061 21.6213 22.664 20.9781 22.5804C20.442 22.4967 19.9152 22.4467 19.4236 22.4467L19.0125 22.3382H19.0035L16.8418 21.7538L15.5108 21.3948L14.0278 20.9942H14.0188L13.5365 20.8689L7.703 19.2991L6.02345 18.8481L4.77258 18.5727L2.73584 18.122L2.48574 18.0635H2.47676L0.431029 17.6209V17.6125L0.0648608 17.5373L-0.122715 17.4956L-1.6147 17.1698L-1.78431 17.1282L-3.05278 16.1512L-4 15.4083V12.0015C-3.66941 11.7009 -3.32983 11.4171 -2.97265 11.1414C-2.86556 11.0497 -2.74914 10.966 -2.63307 10.8824C-2.52598 10.7988 -2.40956 10.7155 -2.29349 10.6319C-1.48066 10.0559 -0.622917 9.53801 0.288371 9.0957C1.44976 8.51132 2.68266 8.04348 3.97808 7.70965C4.22818 7.63442 4.47828 7.56758 4.73737 7.51754C6.2024 7.17531 7.73894 7 9.32938 7C13.3227 7 17.039 8.12711 20.1121 10.0559C21.6397 11.0161 23.0156 12.1684 24.177 13.4792C24.7667 14.1388 25.3024 14.832 25.776 15.5665C25.8206 15.6249 25.8565 15.675 25.8921 15.7334C26.1781 16.1761 26.4459 16.6352 26.6873 17.1027C26.9108 17.5201 27.107 17.9376 27.286 18.3718C27.5713 19.0402 27.8038 19.725 28 20.4262Z" fill="#F50057"/>
<path d="M27 24.1449C26.8734 24.3364 26.7377 24.5187 26.6021 24.6923C26.2041 25.1938 25.7702 25.6499 25.2816 26.0512C24.8568 26.4071 24.4043 26.7263 23.9252 27C23.7444 26.9545 23.5636 26.8998 23.3734 26.8268C22.7765 26.617 22.1526 26.2703 21.5739 25.9056C20.7056 25.349 19.9552 24.7473 19.6206 24.4736C19.494 24.3643 19.4307 24.3092 19.4307 24.3092L17.8935 24.1724L17.7036 24.1541L15.7142 23.9809L13.6525 23.7985L10.605 23.5248L5.77582 23.0963L5.75764 23.0871L4.05746 22.2572L2.3391 21.4182L0.955388 20.7431L0.657111 20.5971L0.286448 20.4147L-0.997594 19.7855L-2.70686 18.9556L-3.24049 18.6911L-4 18.4541V14.3761C-3.57514 13.8654 -3.12263 13.3819 -2.64357 12.9167C-2.3362 12.6246 -2.01064 12.3329 -1.67599 12.0592C-1.62179 12.0137 -1.56759 11.9679 -1.51303 11.9316C-1.47702 11.8861 -1.43155 11.8586 -1.39554 11.8402C-0.861915 11.4025 -0.301374 11.0103 0.277355 10.6544C0.946658 10.2259 1.65197 9.84251 2.38457 9.52332C3.17136 9.16744 3.99417 8.86659 4.84426 8.63838C6.31818 8.21866 7.88267 8 9.49264 8C13.1822 8 16.5916 9.13111 19.4041 11.0738C21.2041 12.3147 22.759 13.883 23.9892 15.6984C24.3963 16.2821 24.7578 16.9025 25.0925 17.5409C25.21 17.7779 25.3275 18.0153 25.4271 18.2523C25.5355 18.4805 25.6352 18.7083 25.7345 18.9365C25.9244 19.4109 26.0961 19.8853 26.2499 20.3777C26.5395 21.2898 26.7563 22.2202 26.892 23.1869C26.9367 23.5065 26.9727 23.8257 27 24.1449Z" fill="#FF1744"/>
<path d="M24 26.3018C24 26.3718 24 26.4507 23.9913 26.5292C23.5852 26.8708 23.1526 27.1771 22.6947 27.4398C22.5045 27.5447 22.3143 27.65 22.1154 27.7373C21.9165 27.8335 21.7176 27.9211 21.5104 28C21.2166 27.8426 20.8188 27.65 20.3953 27.4658C19.799 27.1944 19.1505 26.9493 18.6491 26.8704C18.5281 26.844 18.4158 26.8356 18.3118 26.8356L16.8942 26.6518H16.8768L15.1132 26.4155L13.3326 26.1792L12.5026 26.0743L5.96744 25.2165C5.54393 25.2165 5.09434 25.1901 4.62771 25.1289C4.05712 25.0764 3.4608 24.9887 2.86413 24.8662C2.27616 24.7613 1.67983 24.6211 1.10924 24.4722C0.512921 24.332 -0.0750558 24.1658 -0.619569 24.0081C-1.25066 23.8155 -1.83829 23.6317 -2.33134 23.4655C-2.73747 23.3342 -3.08344 23.2116 -3.35152 23.1155C-3.50695 22.7391 -3.63664 22.3451 -3.73192 21.9426C-3.91342 21.2599 -4 20.5419 -4 19.8067V18.3447C-3.72322 17.8806 -3.42072 17.4257 -3.08379 16.9965C-2.47008 16.1736 -1.76979 15.4208 -1.009 14.7556C-0.982925 14.7208 -0.948502 14.6944 -0.922423 14.6768L-0.913731 14.668C-0.645647 14.4229 -0.369218 14.2039 -0.0750556 13.994C-0.0406322 13.9592 -0.00586152 13.9327 0.0285616 13.9063C0.16695 13.8014 0.313684 13.6961 0.469458 13.6C1.70556 12.7507 3.07137 12.0856 4.53244 11.6391C5.91563 11.219 7.37636 11 8.89793 11C11.915 11 14.7328 11.9018 17.0841 13.4423C18.8216 14.5715 20.3171 16.0595 21.4582 17.8018C21.5966 18.0032 21.7263 18.2046 21.856 18.4144C22.4523 19.4387 22.945 20.5415 23.3084 21.6972C23.3515 21.8285 23.3863 21.9599 23.4207 22.1C23.4899 22.3363 23.5504 22.5813 23.6022 22.8264C23.6196 22.8877 23.6366 22.9489 23.654 23.019C23.775 23.5704 23.8616 24.1482 23.9221 24.7261V24.7349C23.9743 25.2514 24 25.7764 24 26.3018Z" fill="#FF5722"/>
<path d="M23 25.76C23 26.0723 22.9819 26.4114 22.9461 26.7506C22.928 26.9111 22.9103 27.0718 22.8922 27.2237C22.6853 27.3217 22.4783 27.411 22.2627 27.4914C21.8579 27.6432 21.4444 27.7681 21.0215 27.8572C20.7335 27.9196 20.4369 27.9731 20.1402 28H20.1312C19.8522 27.8306 19.5285 27.6253 19.1956 27.3931C18.5929 26.9739 17.9634 26.5008 17.4599 26.1171L17.4418 26.0992C16.911 25.6976 16.5334 25.3943 16.5334 25.3943L15.5801 25.4298L13.7452 25.4923L12.8907 25.5278L9.45496 25.6527L6.54994 25.7597C6.3611 25.7686 6.13608 25.7686 5.85752 25.7597H5.84847C5.47078 25.7507 5.0211 25.7241 4.5262 25.6793C3.95063 25.6348 3.32115 25.5813 2.68226 25.5188C2.06182 25.4474 1.43198 25.376 0.829633 25.3046C0.163976 25.2331 -0.465504 25.1527 -1.00527 25.0813C-1.42781 25.0278 -1.79682 24.9833 -2.09347 24.9474C-2.34526 24.6617 -2.57028 24.3674 -2.7859 24.0462C-3.10968 23.5642 -3.38861 23.0556 -3.60422 22.5115C-3.76593 22.1278 -3.90087 21.7262 -4 21.316C-3.73916 20.5217 -3.39729 19.7723 -2.99283 19.0494C-2.66905 18.4604 -2.29136 17.8984 -1.87749 17.3629C-1.47267 16.8364 -1.03204 16.3457 -0.555224 15.8996V15.8906C-0.420283 15.7567 -0.285343 15.6318 -0.150403 15.5159C0.101389 15.2841 0.362226 15.0698 0.632107 14.8645H0.641151C0.650196 14.8465 0.65924 14.8465 0.668284 14.8376C0.884261 14.6682 1.10892 14.5163 1.33394 14.3645C2.66489 13.4633 4.16696 12.7939 5.78589 12.4016C6.856 12.1428 7.98038 12 9.14058 12C11.4252 12 13.5835 12.5445 15.4813 13.5257H15.4904C17.1183 14.3555 18.5575 15.4976 19.7177 16.8719C20.3562 17.6037 20.905 18.4066 21.3547 19.2544C21.6694 19.8254 21.9393 20.4233 22.1643 21.0299C22.1824 21.0834 22.2001 21.1279 22.2182 21.1727C22.3712 21.6189 22.5062 22.083 22.623 22.547C22.7041 22.8772 22.767 23.2164 22.8209 23.5552C22.839 23.6622 22.8567 23.7605 22.8658 23.8675C22.9548 24.4841 23 25.1176 23 25.76Z" fill="#FF6F00"/>
<path d="M21 25.572V25.6663C21 25.9861 20.9728 26.3907 20.946 26.8237C20.9188 27.1435 20.8919 27.4728 20.8647 27.7835C20.5761 27.8494 20.2787 27.9058 19.9813 27.9341H19.9723C19.6296 27.9811 19.2959 28 18.9445 28H17.3666L17.0239 27.8967L15.2477 27.332L13.4446 26.7673L9.27017 25.4593L7.46709 24.8946C7.46709 24.8946 6.71895 25.2049 5.66401 25.572H5.65494C5.24914 25.7132 4.80744 25.8638 4.33853 26.0141C3.75249 26.1927 3.13055 26.3718 2.51732 26.5129C1.88631 26.6636 1.26401 26.7764 0.705168 26.8233C0.533998 26.8422 0.362466 26.8517 0.209429 26.8517C-0.295376 26.5599 -0.782411 26.2117 -1.22412 25.826C-1.61179 25.4873 -1.97226 25.1201 -2.30589 24.7155C-2.5583 24.4143 -2.78386 24.1039 -3 23.7652C-2.9369 23.3416 -2.86473 22.9276 -2.75666 22.523C-2.48613 21.4034 -2.06256 20.3304 -1.50335 19.3521C-1.19692 18.7968 -0.854215 18.2605 -0.457479 17.7617C-0.448413 17.7333 -0.421578 17.7053 -0.394379 17.6864C-0.403445 17.6769 -0.394379 17.6769 -0.394379 17.6769C-0.277244 17.5168 -0.151043 17.3665 -0.0248413 17.2254V17.2159C0.344696 16.8019 0.7233 16.4067 1.13817 16.0396C1.2825 15.9173 1.41777 15.7951 1.57081 15.6725C1.59801 15.6441 1.62484 15.6255 1.66111 15.5971C3.68975 13.9788 6.22321 13 8.95503 13C12.0564 13 14.8785 14.2138 17.0152 16.2088C18.043 17.1781 18.9177 18.3355 19.5759 19.6246C19.6299 19.7188 19.684 19.8221 19.7293 19.9258C19.8105 20.0954 19.8917 20.274 19.9636 20.4622C20.2609 21.1396 20.4956 21.8546 20.6577 22.5888C20.6758 22.6642 20.6936 22.7395 20.7117 22.8148C20.7839 23.163 20.847 23.5207 20.8919 23.878C20.9641 24.4336 21 24.9979 21 25.572Z" fill="#FF9800"/>
<path d="M19 25.7708C19 25.9435 18.9916 26.1336 18.9831 26.3323C18.9662 26.652 18.9412 26.9975 18.8989 27.3519C18.882 27.5681 18.8486 27.7839 18.8148 28H14.2101L13.3195 27.853L9.84037 27.2828L9.34452 27.2049L8.21017 27.0148C7.71431 27.0148 6.63878 27.2393 5.50443 27.4555C4.90785 27.5677 4.30282 27.6886 3.7566 27.7665C3.68934 27.7752 3.62207 27.7839 3.56326 27.7925H3.55481C2.96668 27.6629 2.39511 27.4641 1.85734 27.2049C1.68935 27.1271 1.52137 27.0409 1.35304 26.9457C0.882534 26.6777 0.428592 26.358 0.0169003 26.0039C0.00845015 25.9004 0 25.8139 0 25.7708C0 25.5463 0.00845015 25.3301 0.0253505 25.1143C0.0588131 24.5614 0.134526 24.0259 0.252152 23.5075C0.437042 22.7214 0.706095 21.9611 1.06742 21.2612C1.13469 21.1142 1.2104 20.9676 1.29423 20.8293C1.32769 20.7601 1.36994 20.6996 1.4034 20.6305C1.55483 20.3799 1.72282 20.1381 1.89081 19.8962C2.24436 19.4208 2.63504 18.9758 3.05896 18.5656H3.06741C3.10087 18.5312 3.13467 18.4965 3.16813 18.4708C3.21004 18.4363 3.24384 18.3929 3.28576 18.3672C3.45375 18.2115 3.62174 18.0736 3.79851 17.9439C3.79851 17.9352 3.80696 17.9352 3.80696 17.9352C5.39525 16.7172 7.36144 16 9.50439 16C11.1684 16 12.7144 16.4319 14.0675 17.1923H14.0759C15.2356 17.8487 16.2439 18.7387 17.0423 19.81C17.3532 20.2246 17.6304 20.6652 17.8657 21.1319H17.8741C17.916 21.2185 17.9583 21.3046 18.0002 21.3912C18.2523 21.901 18.4541 22.4365 18.6052 22.9893H18.6137C18.6221 23.0324 18.639 23.0759 18.6471 23.119C18.7478 23.4904 18.832 23.8706 18.8908 24.2595C18.8993 24.3373 18.9077 24.4235 18.9162 24.5013C18.9747 24.9156 19 25.3388 19 25.7708Z" fill="#FFC107"/>
<path d="M17 25.4988C17 25.6476 17 25.8055 16.9826 25.9543V25.973C16.9652 26.6424 16.8789 27.3025 16.7405 27.8975C16.7405 27.9346 16.7318 27.9626 16.7144 27.9996H12.6756L9.34578 27.2281L8.90468 27.126L8.83546 27.1447L5.14245 27.963L4.97826 28H4.74484C4.19137 28 3.64661 27.9443 3.11888 27.8325C3.04096 27.8138 2.96304 27.7954 2.88546 27.7767H2.87677C2.27147 27.6372 1.68322 27.4233 1.12976 27.1443C1.11236 27.0422 1.09532 26.9398 1.08662 26.8377C1.02609 26.4379 1 26.0194 1 25.6009C1 25.4427 1 25.2849 1.0087 25.1267C1.03479 24.6244 1.10367 24.1319 1.20768 23.6577C1.27691 23.3043 1.37187 22.9602 1.48459 22.6348C1.57955 22.3465 1.69226 22.0675 1.81332 21.7978C1.91699 21.5652 2.03805 21.3423 2.15911 21.1191C2.28017 20.9051 2.40992 20.7006 2.54838 20.496C2.89416 19.9848 3.30082 19.5106 3.75062 19.0921C4.01013 18.8505 4.29539 18.6179 4.58969 18.4133C5.85246 17.5206 7.3657 17 9.00035 17C9.32039 17 9.63173 17.0187 9.93438 17.0651H9.95178C10.8771 17.1765 11.7419 17.4555 12.5375 17.874H12.5462C13.8003 18.5341 14.8641 19.5289 15.6423 20.7563C15.772 20.9609 15.9018 21.1841 16.0141 21.407C16.1091 21.5836 16.1957 21.7698 16.2736 21.9557C16.3973 22.2502 16.507 22.5513 16.6024 22.8577H16.6111C16.706 23.2018 16.7927 23.5458 16.8532 23.9082V23.9176C16.9482 24.4296 17 24.9595 17 25.4988Z" fill="#FFD54F"/>
<path d="M16 25.6943V25.7223C16 26.2709 15.9368 26.8101 15.8103 27.34C15.7652 27.5632 15.702 27.7861 15.6206 28H11.5732L9.50436 27.4144L7.43557 28H5.05971C4.48155 28 3.91248 27.9443 3.36121 27.8325C3.34304 27.8044 3.33396 27.7768 3.32524 27.7487C3.19878 27.349 3.09921 26.9492 3.05415 26.5308C3.01817 26.2612 3 25.9822 3 25.6939C3 25.5825 3 25.4613 3.01817 25.3499C3.02725 24.9131 3.09048 24.4853 3.19878 24.0762C3.25257 23.7987 3.33429 23.5276 3.44261 23.2674C3.47859 23.1373 3.5331 23.0165 3.59633 22.8957C3.73187 22.5797 3.89431 22.2727 4.07528 21.9754C4.27405 21.6778 4.491 21.3992 4.73484 21.1386C5.0241 20.8039 5.34933 20.4973 5.71963 20.246C6.35193 19.7718 7.07472 19.4184 7.86074 19.2232C8.38475 19.0744 8.93565 19 9.50509 19C11.3119 19 12.929 19.7438 14.1035 20.943C14.1485 20.9894 14.2027 21.0451 14.2481 21.1101H14.2572C14.3836 21.2496 14.501 21.3891 14.6184 21.5469C14.9527 21.9837 15.2329 22.4578 15.4495 22.9787C15.5578 23.2203 15.6482 23.4716 15.7206 23.7318C15.7296 23.7689 15.7387 23.7969 15.7478 23.8339C15.8743 24.2894 15.9557 24.7635 15.9738 25.2564C15.9909 25.397 16 25.5458 16 25.6943Z" fill="#FFE082"/>
<path d="M13 25.7215C13 26.098 12.9612 26.4565 12.8754 26.7964C12.7975 27.1638 12.6807 27.513 12.533 27.8437C12.5095 27.8987 12.455 28 12.455 28H5.54496C5.53713 27.9908 5.52931 27.9723 5.52931 27.9634C5.43603 27.789 5.35809 27.6142 5.2958 27.4213C5.14023 26.9986 5.04664 26.5392 5.01565 26.0618C5 25.9517 5 25.832 5 25.7218C5 25.6668 5 25.6025 5.00783 25.5474C5.01565 25.1432 5.06229 24.7574 5.15557 24.3989C5.23351 24.0682 5.33461 23.7652 5.4667 23.471C5.4667 23.471 5.47453 23.4618 5.47453 23.4526C5.56781 23.2597 5.66922 23.0668 5.78566 22.8831C6.16691 22.2767 6.67274 21.7808 7.25651 21.4593H7.26434C7.45121 21.3492 7.64559 21.2572 7.84811 21.1929H7.85594C8.21402 21.0643 8.6031 21 9 21C9.45919 21 9.90273 21.0828 10.3075 21.2572C10.4552 21.303 10.5954 21.3766 10.7353 21.4593H10.7432C11.4124 21.8359 11.9805 22.4238 12.3696 23.1588C12.4475 23.2966 12.5173 23.4437 12.5796 23.5996C12.6106 23.6639 12.6419 23.7375 12.6651 23.8018C12.8441 24.2796 12.953 24.8032 12.984 25.3545C12.9919 25.4004 12.9919 25.4466 12.9919 25.5016C13 25.5748 13 25.6483 13 25.7215Z" fill="#FFECB3"/>
</g>
<path d="M15.4962 20.0435H8.50388C7.2795 20.0435 6.13505 19.5731 5.28075 18.719C4.42669 17.865 3.9563 16.7203 3.9563 15.4962V8.50382C3.9563 7.27944 4.42669 6.13499 5.28075 5.28069C6.13481 4.42663 7.2795 3.95624 8.50388 3.95624H15.496C16.7204 3.95624 17.8648 4.42663 18.7189 5.28069C19.5729 6.13475 20.0433 7.27944 20.0433 8.50382V15.4959C20.0433 16.7203 19.5729 17.8648 18.7189 18.7188C17.865 19.5731 16.7204 20.0435 15.4962 20.0435ZM8.50388 4.89397C6.47958 4.89397 4.8938 6.47975 4.8938 8.50405V15.4962C4.8938 17.5205 6.47958 19.1062 8.50388 19.1062H15.496C17.5203 19.1062 19.1061 17.5205 19.1061 15.4962V8.50382C19.1061 6.47952 17.5203 4.89374 15.496 4.89374H8.50388V4.89397Z" fill="white"/>
<path d="M15.4962 7.33852C15.4962 7.41503 15.5113 7.4908 15.5406 7.56149C15.5699 7.63218 15.6128 7.69641 15.6669 7.75052C15.721 7.80462 15.7852 7.84754 15.8559 7.87682C15.9266 7.9061 16.0024 7.92117 16.0789 7.92117C16.1554 7.92117 16.2312 7.9061 16.3018 7.87682C16.3725 7.84754 16.4368 7.80462 16.4909 7.75052C16.545 7.69641 16.5879 7.63218 16.6172 7.56149C16.6465 7.4908 16.6615 7.41503 16.6615 7.33852C16.6615 7.262 16.6465 7.18623 16.6172 7.11554C16.5879 7.04485 16.545 6.98062 16.4909 6.92652C16.4368 6.87241 16.3725 6.82949 16.3018 6.80021C16.2312 6.77093 16.1554 6.75586 16.0789 6.75586C16.0024 6.75586 15.9266 6.77093 15.8559 6.80021C15.7852 6.82949 15.721 6.87241 15.6669 6.92652C15.6128 6.98062 15.5699 7.04485 15.5406 7.11554C15.5113 7.18623 15.4962 7.262 15.4962 7.33852Z" fill="white"/>
<path d="M12 15.9649C9.81371 15.9649 8.03503 14.1863 8.03503 12C8.03503 9.81377 9.81371 8.0351 12 8.0351C14.1862 8.0351 15.9649 9.81377 15.9649 12C15.9649 14.1863 14.1862 15.9649 12 15.9649ZM12 8.9726C10.3307 8.9726 8.97253 10.3306 8.97253 12C8.97253 13.6695 10.3307 15.0274 12 15.0274C13.6692 15.0274 15.0274 13.6692 15.0274 12C15.0274 10.3308 13.6692 8.9726 12 8.9726Z" fill="white"/>
</g>
<defs>
<clipPath id="clip0_65_780">
<rect width="24" height="24" fill="white"/>
</clipPath>
</defs>
</svg>
