<svg width="50" height="50" viewBox="0 0 50 50" fill="none" xmlns="http://www.w3.org/2000/svg">
<mask id="mask0_117_489" style="mask-type:luminance" maskUnits="userSpaceOnUse" x="0" y="0" width="50" height="50">
<path d="M50 0H0V50H50V0Z" fill="white"/>
</mask>
<g mask="url(#mask0_117_489)">
<path d="M3.24658 10.3409H46.7535C48.1304 10.3409 49.2428 9.25506 49.2428 7.91667C49.2428 6.57892 48.131 5.49243 46.7535 5.49243H3.24658C1.87221 5.49243 0.757324 6.57829 0.757324 7.91667C0.757324 9.25506 1.87221 10.3409 3.24658 10.3409ZM46.7529 22.4621H3.24658C1.86905 22.4621 0.757324 23.548 0.757324 24.8863C0.757324 26.2247 1.86905 27.3106 3.24658 27.3106H46.7535C48.1304 27.3106 49.2428 26.2247 49.2428 24.8863C49.2422 23.548 48.1235 22.4621 46.7529 22.4621ZM46.7529 39.6319H3.24658C1.87284 39.6319 0.757324 40.7178 0.757324 42.0562C0.757324 43.3945 1.87221 44.4804 3.24658 44.4804H46.7535C48.1304 44.4804 49.2428 43.3945 49.2428 42.0562C49.2422 40.7184 48.1304 39.6319 46.7529 39.6319Z" fill="#4E5969"/>
</g>
</svg>
