<svg width="18" height="17" viewBox="0 0 18 17" fill="none" xmlns="http://www.w3.org/2000/svg">
<path d="M17.0595 7.30474C17.3619 6.95677 17.5857 6.76455 17.5857 6.44884C17.5857 6.08121 17.4088 5.95143 16.9542 5.84969L11.5311 5.33265L9.57372 0.644054C9.47691 0.44903 9.25593 0.00352627 8.79638 1.86464e-05C8.35298 -0.00278746 8.11727 0.311513 7.98468 0.67985L5.95645 5.36422L0.552981 5.86374C0.278667 5.91495 0.057651 6.09105 0.00714126 6.4348C-0.042667 6.76878 0.174122 7.07043 0.46878 7.3258C0.583129 7.42544 4.27759 10.6049 4.27759 10.6049C4.27759 10.6049 3.09334 15.3819 2.98882 15.8148C2.88708 16.2329 3.47359 16.6791 3.93312 16.4483C4.39478 16.2161 8.79992 13.668 8.79992 13.668L13.365 16.3136C13.4829 16.3669 13.7621 16.4883 13.8751 16.4883C14.2357 16.4883 14.5787 16.3578 14.5156 15.906C14.4595 15.5012 13.4218 10.5818 13.4218 10.5818C13.4218 10.5818 17.0581 7.30616 17.0595 7.30474Z" fill="#F3A514"/>
</svg>
