<svg width="18" height="18" viewBox="0 0 18 18" fill="none" xmlns="http://www.w3.org/2000/svg">
<path d="M17.3049 7.65923C17.6072 7.31126 17.831 7.11904 17.831 6.80334C17.831 6.4357 17.6542 6.30592 17.1996 6.20418L11.7765 5.68714L9.81908 0.998546C9.72227 0.803522 9.50129 0.358018 9.04174 0.354511C8.59834 0.351705 8.36263 0.666006 8.23004 1.03434L6.20181 5.71871L0.798343 6.21823C0.524029 6.26944 0.303012 6.44554 0.252503 6.78929C0.202694 7.12327 0.419483 7.42492 0.714142 7.6803C0.82849 7.77993 4.52295 10.9594 4.52295 10.9594C4.52295 10.9594 3.33871 15.7364 3.23418 16.1693C3.13244 16.5874 3.71895 17.0336 4.17848 16.8028C4.64014 16.5706 9.04528 14.0225 9.04528 14.0225L13.6104 16.6681C13.7282 16.7214 14.0075 16.8428 14.1204 16.8428C14.481 16.8428 14.8241 16.7123 14.7609 16.2605C14.7048 15.8557 13.6672 10.9363 13.6672 10.9363C13.6672 10.9363 17.3034 7.66065 17.3049 7.65923Z" fill="#B9B7B7"/>
</svg>
