<svg width="28" height="28" viewBox="0 0 28 28" fill="none" xmlns="http://www.w3.org/2000/svg">
<path fill-rule="evenodd" clip-rule="evenodd" d="M3 8C3 10.7614 5.23858 13 8 13H13V8C13 5.23858 10.7614 3 8 3C5.23858 3 3 5.23858 3 8ZM11 8V11H8C7.17157 11 6.46447 10.7071 5.87868 10.1213C5.29289 9.53554 5 8.82843 5 8C5 7.17157 5.29289 6.46446 5.87868 5.87868C6.46447 5.29289 7.17157 5 8 5C8.82842 5 9.53553 5.29289 10.1213 5.87868C10.7071 6.46446 11 7.17157 11 8ZM4 20C4 22.7614 6.23858 25 9 25C11.7614 25 14 22.7614 14 20V15H9C6.23858 15 4 17.2386 4 20ZM9 17H12V20C12 20.8284 11.7071 21.5355 11.1213 22.1213C10.5355 22.7071 9.82843 23 9 23C8.17157 23 7.46447 22.7071 6.87868 22.1213C6.29289 21.5355 6 20.8284 6 20C6 19.1716 6.29289 18.4645 6.87868 17.8787C7.46447 17.2929 8.17157 17 9 17ZM15 13H20C22.7614 13 25 10.7614 25 8C25 5.23858 22.7614 3 20 3C17.2386 3 15 5.23858 15 8V13ZM20 11H17V8C17 7.17157 17.2929 6.46446 17.8787 5.87868C18.4645 5.29289 19.1716 5 20 5C20.8284 5 21.5355 5.29289 22.1213 5.87868C22.7071 6.46446 23 7.17157 23 8C23 8.82843 22.7071 9.53554 22.1213 10.1213C21.5355 10.7071 20.8284 11 20 11ZM20 15H15V20C15 22.7614 17.2386 25 20 25C22.7614 25 25 22.7614 25 20C25 17.2386 22.7614 15 20 15ZM17 20C17 20.8284 17.2929 21.5355 17.8787 22.1213C18.4645 22.7071 19.1716 23 20 23C20.8284 23 21.5355 22.7071 22.1213 22.1213C22.7071 21.5355 23 20.8284 23 20C23 19.1716 22.7071 18.4645 22.1213 17.8787C21.5355 17.2929 20.8284 17 20 17H17V20Z" fill="white"/>
</svg>
