<svg width="40" height="40" viewBox="0 0 40 40" fill="none" xmlns="http://www.w3.org/2000/svg">
<g clip-path="url(#clip0_240_1309)">
<path d="M20 0C31.0403 0 40 8.95867 40 20C40 31.0413 31.0413 40 20 40C8.95867 40 0 31.0413 0 20C0 8.95867 8.95867 0 20 0Z" fill="#EA4148"/>
<path fill-rule="evenodd" clip-rule="evenodd" d="M9 14C9 16.7614 11.2386 19 14 19H19V14C19 11.2386 16.7614 9.00002 14 9.00002C11.2386 9.00002 9 11.2386 9 14ZM17 14V17H14C13.1716 17 12.4645 16.7071 11.8787 16.1213C11.2929 15.5356 11 14.8284 11 14C11 13.1716 11.2929 12.4645 11.8787 11.8787C12.4645 11.2929 13.1716 11 14 11C14.8284 11 15.5355 11.2929 16.1213 11.8787C16.7071 12.4645 17 13.1716 17 14ZM10 26C10 28.7614 12.2386 31 15 31C17.7614 31 20 28.7614 20 26V21H15C12.2386 21 10 23.2386 10 26ZM15 23H18V26C18 26.8284 17.7071 27.5356 17.1213 28.1213C16.5355 28.7071 15.8284 29 15 29C14.1716 29 13.4645 28.7071 12.8787 28.1213C12.2929 27.5356 12 26.8284 12 26C12 25.1716 12.2929 24.4645 12.8787 23.8787C13.4645 23.2929 14.1716 23 15 23ZM21 19H26C28.7614 19 31 16.7614 31 14C31 11.2386 28.7614 9.00002 26 9.00002C23.2386 9.00002 21 11.2386 21 14V19ZM26 17H23V14C23 13.1716 23.2929 12.4645 23.8787 11.8787C24.4645 11.2929 25.1716 11 26 11C26.8284 11 27.5355 11.2929 28.1213 11.8787C28.7071 12.4645 29 13.1716 29 14C29 14.8284 28.7071 15.5356 28.1213 16.1213C27.5355 16.7071 26.8284 17 26 17ZM26 21H21V26C21 28.7614 23.2386 31 26 31C28.7614 31 31 28.7614 31 26C31 23.2386 28.7614 21 26 21ZM23 26C23 26.8284 23.2929 27.5356 23.8787 28.1213C24.4645 28.7071 25.1716 29 26 29C26.8284 29 27.5355 28.7071 28.1213 28.1213C28.7071 27.5356 29 26.8284 29 26C29 25.1716 28.7071 24.4645 28.1213 23.8787C27.5355 23.2929 26.8284 23 26 23H23V26Z" fill="white"/>
</g>
<defs>
<clipPath id="clip0_240_1309">
<rect width="40" height="40" fill="white"/>
</clipPath>
</defs>
</svg>
